<svg xmlns="http://www.w3.org/2000/svg" width="32" height="32" viewBox="0 0 32 32">
  <rect x="2" y="2" width="9" height="9" rx="1.5" fill="#a93539"/>
  <rect x="3.5" y="3.5" width="6" height="6" rx="1" fill="#fff8f5"/>
  <rect x="4.75" y="4.75" width="3.5" height="3.5" rx="0.6" fill="#a93539"/>

  <rect x="2" y="21" width="9" height="9" rx="1.5" fill="#a93539"/>
  <rect x="3.5" y="22.5" width="6" height="6" rx="1" fill="#fff8f5"/>
  <rect x="4.75" y="23.75" width="3.5" height="3.5" rx="0.6" fill="#a93539"/>

  <rect x="13" y="2" width="3" height="3" rx="0.5" fill="#a93539"/>
  <rect x="13" y="13" width="3" height="3" rx="0.5" fill="#a93539"/>
  <rect x="22" y="13" width="3" height="3" rx="0.5" fill="#a93539"/>
  <rect x="13" y="22" width="3" height="3" rx="0.5" fill="#a93539"/>
  <rect x="22" y="22" width="3" height="3" rx="0.5" fill="#a93539"/>
  <rect x="22" y="7" width="3" height="3" rx="0.5" fill="#a93539"/>

  <path d="M27 1 L27.8 4.2 L31 5 L27.8 5.8 L27 9 L26.2 5.8 L23 5 L26.2 4.2 Z" fill="#735c00"/>
</svg>
