<svg xmlns="http://www.w3.org/2000/svg" width="64" height="64" viewBox="0 0 64 64">
  <defs>
    <!-- Coral Gradient: Primary Brand Color -->
    <linearGradient id="coral-grad" x1="0%" y1="0%" x2="100%" y2="100%">
      <stop offset="0%" stop-color="#FF8E8E" />
      <stop offset="100%" stop-color="#a93539" />
    </linearGradient>

    <!-- Gold Gradient: Accent Brand Color -->
    <linearGradient id="gold-grad" x1="0%" y1="0%" x2="100%" y2="100%">
      <stop offset="0%" stop-color="#fed65b" />
      <stop offset="100%" stop-color="#735c00" />
    </linearGradient>

    <!-- Glow/Shadow Filter for Premium Aesthetics -->
    <filter id="shadow" x="-20%" y="-20%" width="140%" height="140%">
      <feDropShadow dx="0" dy="2" stdDeviation="2.5" flood-color="#1e1b18" flood-opacity="0.12" />
    </filter>
  </defs>

  <!-- Base Squircle Card Background (makes it look premium on dark/light tabs) -->
  <rect x="2" y="2" width="60" height="60" rx="16" fill="#fff8f5" filter="url(#shadow)" />

  <!-- Top-Left Finder Pattern -->
  <rect x="8" y="8" width="16" height="16" rx="4" fill="url(#coral-grad)" />
  <rect x="12" y="12" width="8" height="8" rx="2" fill="#fff8f5" />
  <rect x="14" y="14" width="4" height="4" rx="1" fill="url(#coral-grad)" />

  <!-- Bottom-Left Finder Pattern -->
  <rect x="8" y="40" width="16" height="16" rx="4" fill="url(#coral-grad)" />
  <rect x="12" y="44" width="8" height="8" rx="2" fill="#fff8f5" />
  <rect x="14" y="46" width="4" height="4" rx="1" fill="url(#coral-grad)" />

  <!-- Top-Right Finder Pattern (with Heart Center) -->
  <rect x="40" y="8" width="16" height="16" rx="4" fill="url(#coral-grad)" />
  <rect x="44" y="12" width="8" height="8" rx="2" fill="#fff8f5" />
  <!-- Heart shape center (fitted inside x="44" y="12" w="8" h="8") -->
  <path d="M 48 19.5 C 46 17.5 44 15.5 44 13.5 A 2 2 0 0 1 48 11.5 A 2 2 0 0 1 52 11.5 C 52 15.5 50 17.5 48 19.5 Z" fill="url(#gold-grad)" />

  <!-- Center Heart (magical essence of the QR code) -->
  <!-- Size 12x12 units: bounds 28 to 40 in X, 28 to 40 in Y -->
  <path d="M 34 39 C 31 36 28 33 28 30 A 3 3 0 0 1 34 27 A 3 3 0 0 1 40 27 C 40 33 37 36 34 39 Z" fill="url(#gold-grad)" />

  <!-- Scattered QR Pixels (framing the center heart and connecting the grid) -->
  <!-- Y=0..3 timing line -->
  <rect x="28" y="12" width="4" height="4" rx="1.5" fill="url(#coral-grad)" />
  <rect x="32" y="16" width="4" height="4" rx="1.5" fill="url(#gold-grad)" />
  
  <!-- Y=4..7 timing line and center space -->
  <rect x="12" y="28" width="4" height="4" rx="1.5" fill="url(#coral-grad)" />
  <rect x="24" y="24" width="4" height="4" rx="1.5" fill="url(#coral-grad)" />
  <rect x="36" y="24" width="4" height="4" rx="1.5" fill="url(#coral-grad)" />
  <rect x="40" y="24" width="4" height="4" rx="1.5" fill="url(#coral-grad)" />

  <rect x="48" y="28" width="4" height="4" rx="1.5" fill="url(#coral-grad)" />
  <rect x="44" y="32" width="4" height="4" rx="1.5" fill="url(#gold-grad)" />

  <!-- Y=8..11 bottom area -->
  <rect x="24" y="44" width="4" height="4" rx="1.5" fill="url(#coral-grad)" />
  <rect x="28" y="44" width="4" height="4" rx="1.5" fill="url(#coral-grad)" />
  <rect x="40" y="44" width="4" height="4" rx="1.5" fill="url(#coral-grad)" />
  <rect x="44" y="40" width="4" height="4" rx="1.5" fill="url(#gold-grad)" />
  <rect x="36" y="48" width="4" height="4" rx="1.5" fill="url(#coral-grad)" />

  <!-- Magical Sparkles floating around -->
  <!-- Top Right Sparkle -->
  <path d="M 54 1 Q 54 6 59 6 Q 54 6 54 11 Q 54 6 49 6 Q 54 6 54 1 Z" fill="url(#gold-grad)" />
  <!-- Center-Left Sparkle -->
  <path d="M 24 28.5 Q 24 32 27.5 32 Q 24 32 24 35.5 Q 24 32 20.5 32 Q 24 32 24 28.5 Z" fill="url(#gold-grad)" />
  <!-- Bottom-Right Sparkle -->
  <path d="M 42 43.5 Q 42 46 44.5 46 Q 42 46 42 48.5 Q 42 46 39.5 46 Q 42 46 42 43.5 Z" fill="url(#gold-grad)" />
</svg>
